# https://github.com/mikedh/trimesh
mtllib material.mtl
usemtl Material.013
v -3.00000000 -1.00000000 0.09999996
v -3.00000000 -1.00000000 0.09999996
v -3.00000000 3.00000000 0.09999996
v -3.00000000 3.00000000 0.09999996
v -3.00000000 3.00000000 0.09999996
v -3.00000000 -1.00000000 -0.00000000
v -3.00000000 3.00000000 -0.00000000
v -3.00000000 3.00000000 -0.00000000
v 3.00000000 -1.00000000 0.09999996
v 3.00000000 -1.00000000 0.09999996
v 3.00000000 3.00000000 0.09999996
v 3.00000000 3.00000000 0.09999996
v 3.00000000 3.00000000 0.09999996
v 3.00000000 -1.00000000 -0.00000000
v 3.00000000 3.00000000 -0.00000000
v 3.00000000 3.00000000 -0.00000000
v -10.00000000 5.17750263 0.00000381
v -10.00000000 -1.00000000 0.00000381
v -10.00001717 5.17750263 -49.99999619
v -10.00001717 -1.00000000 -49.99999619
v 10.00000000 5.17750263 -0.00000381
v 10.00000000 -1.00000000 -0.00000381
v 9.99998379 5.17750263 -50.00000381
v 9.99998379 -1.00000000 -50.00000381
v 11.88957500 4.86598587 -51.00000381
v 11.88957500 4.86598587 -51.00000381
v 11.88957500 4.86598587 -51.00000381
v -11.88960648 4.86598587 -50.99999619
v -11.88960648 4.86598587 -50.99999619
v -11.88960648 4.86598587 -50.99999619
v 11.88959122 4.86598587 0.99999619
v 11.88959122 4.86598587 0.99999619
v 11.88959122 4.86598587 0.99999619
v -11.88959122 4.86598587 1.00000381
v -11.88959122 4.86598587 1.00000381
v -11.88959122 4.86598587 1.00000381
v -0.00001662 7.00000000 -51.00000000
v -0.00001662 7.00000000 -51.00000000
v -0.00001662 7.00000000 -51.00000000
v -0.00001662 7.00000000 -51.00000000
v 0.00000033 7.00000000 1.00000000
v 0.00000033 7.00000000 1.00000000
v 0.00000033 7.00000000 1.00000000
v 0.00000033 7.00000000 1.00000000
v 0.00000000 -1.00000000 -0.00000000
v -0.00001629 7.00000000 -50.00000000
v -0.00001629 -1.00000000 -50.00000000
v 0.00000000 7.00000000 -0.00000000
v 11.88957500 5.06598568 -51.00000381
v 11.88957500 5.06598568 -51.00000381
v 11.88957500 5.06598568 -51.00000381
v -11.88960648 5.06598568 -50.99999619
v -11.88960648 5.06598568 -50.99999619
v -11.88960648 5.06598568 -50.99999619
v 11.88959122 5.06598568 0.99999619
v 11.88959122 5.06598568 0.99999619
v 11.88959122 5.06598568 0.99999619
v -11.88959122 5.06598568 1.00000381
v -11.88959122 5.06598568 1.00000381
v -11.88959122 5.06598568 1.00000381
v -0.00001662 7.19999981 -51.00000000
v -0.00001662 7.19999981 -51.00000000
v -0.00001662 7.19999981 -51.00000000
v -0.00001662 7.19999981 -51.00000000
v 0.00000033 7.19999981 1.00000000
v 0.00000033 7.19999981 1.00000000
v 0.00000033 7.19999981 1.00000000
v 0.00000033 7.19999981 1.00000000
v 9.99999905 1.70838153 -3.35232162
v 9.99999905 1.70838153 -3.35232162
v 9.99999905 1.70838153 -3.35232162
v 9.99999809 1.70838153 -7.59812164
v 9.99999809 1.70838153 -7.59812164
v 9.99999809 1.70838153 -7.59812164
v 9.99999714 1.70838153 -11.36399078
v 9.99999714 1.70838153 -11.36399078
v 9.99999714 1.70838153 -11.36399078
v 9.99999523 1.70838153 -15.55908966
v 9.99999523 1.70838153 -15.55908966
v 9.99999523 1.70838153 -15.55908966
v 9.99999237 1.70838153 -23.25139809
v 9.99999237 1.70838153 -23.25139809
v 9.99999237 1.70838153 -23.25139809
v 9.99998856 1.70838165 -34.44091415
v 9.99998856 1.70838165 -34.44091415
v 9.99998856 1.70838165 -34.44091415
v 9.99998760 1.70838165 -38.63601303
v 9.99998760 1.70838165 -38.63601303
v 9.99998760 1.70838165 -38.63601303
v 9.99998665 1.70838153 -42.43684006
v 9.99998665 1.70838153 -42.43684006
v 9.99998665 1.70838153 -42.43684006
v 9.99998569 1.70838153 -46.61272812
v 9.99998569 1.70838153 -46.61272812
v 9.99998569 1.70838153 -46.61272812
v -10.00000095 5.17750263 -2.46250916
v -10.00000095 5.17750263 -2.46250916
v -10.00000381 5.17750263 -8.48791885
v -10.00000381 5.17750263 -8.48791885
v -10.00000381 5.17750263 -10.74283981
v -10.00000381 5.17750263 -10.74283981
v -10.00000572 5.17750263 -16.18022537
v -10.00000572 5.17750263 -16.18022537
v -10.00000668 5.17750263 -18.43514824
v -10.00000668 5.17750263 -18.43514824
v -10.00000858 5.17750263 -23.87253380
v -10.00000858 5.17750263 -23.87253380
v -10.00000954 5.17750263 -26.12745476
v -10.00000954 5.17750263 -26.12745476
v -10.00001144 5.17750263 -31.56484222
v -10.00001144 5.17750263 -31.56484222
v -10.00001144 5.17750263 -33.81976318
v -10.00001144 5.17750263 -33.81976318
v -10.00001335 5.17750263 -39.25715256
v -10.00001335 5.17750263 -39.25715256
v -10.00001431 5.17750263 -41.51207352
v -10.00001431 5.17750263 -41.51207352
v -10.00001621 5.17750263 -47.53748322
v -10.00001621 5.17750263 -47.53748322
v 9.99998474 5.17750263 -47.53748703
v 9.99998474 5.17750263 -47.53748703
v 9.99998665 5.17750263 -41.51207733
v 9.99998665 5.17750263 -41.51207733
v 9.99998760 5.17750263 -39.25715637
v 9.99998760 5.17750263 -39.25715637
v 9.99998856 5.17750263 -33.81977081
v 9.99998856 5.17750263 -33.81977081
v 9.99998951 5.17750263 -31.56484985
v 9.99998951 5.17750263 -31.56484985
v 9.99999237 5.17750263 -26.12746239
v 9.99999237 5.17750263 -26.12746239
v 9.99999237 5.17750263 -23.87254333
v 9.99999237 5.17750263 -23.87254333
v 9.99999428 5.17750263 -18.43515778
v 9.99999428 5.17750263 -18.43515778
v 9.99999428 5.17750263 -16.18023682
v 9.99999428 5.17750263 -16.18023682
v 9.99999714 5.17750263 -10.74284744
v 9.99999714 5.17750263 -10.74284744
v 9.99999809 5.17750263 -8.48793030
v 9.99999809 5.17750263 -8.48793030
v 10.00000000 5.17750263 -2.46251678
v 10.00000000 5.17750263 -2.46251678
v -10.00001526 1.70838153 -46.61272049
v -10.00001526 1.70838153 -46.61272049
v -10.00001526 1.70838153 -46.61272049
v -10.00001335 1.70838165 -38.63600922
v -10.00001335 1.70838165 -38.63600922
v -10.00001335 1.70838165 -38.63600922
v -10.00000381 1.70838153 -7.59811783
v -10.00000381 1.70838153 -7.59811783
v -10.00000381 1.70838153 -7.59811783
v 11.17419815 -1.00000000 -2.46251678
v 11.17419815 -1.00000000 -2.46251678
v 10.62472439 5.06425047 -2.46251678
v 10.62472439 5.06425047 -2.46251678
v 10.62472534 5.06425047 -0.00000381
v 10.62472534 5.06425047 -0.00000381
v 11.17419815 -1.00000000 -0.00000381
v 11.17419815 -1.00000000 -0.00000381
v -11.17421436 -1.00000000 -47.53748322
v -11.17421436 -1.00000000 -47.53748322
v -10.62474060 5.06425047 -47.53748322
v -10.62474060 5.06425047 -47.53748322
v -10.62474155 5.06425047 -49.99999619
v -10.62474155 5.06425047 -49.99999619
v -11.17421532 -1.00000000 -49.99999619
v -11.17421532 -1.00000000 -49.99999619
v -11.17419815 -1.00000000 0.00000381
v -11.17419815 -1.00000000 0.00000381
v -10.62472534 5.06425047 0.00000381
v -10.62472534 5.06425047 0.00000381
v -10.62472534 5.06425047 -2.46250916
v -10.62472534 5.06425047 -2.46250916
v -11.17419910 -1.00000000 -2.46250916
v -11.17419910 -1.00000000 -2.46250916
v -11.17420197 -1.00000000 -8.48792267
v -11.17420197 -1.00000000 -8.48792267
v -10.62472725 5.06425047 -8.48791885
v -10.62472725 5.06425047 -8.48791885
v -10.62472820 5.06425047 -10.74283981
v -10.62472820 5.06425047 -10.74283981
v -11.17420197 -1.00000000 -10.74283981
v -11.17420197 -1.00000000 -10.74283981
v -11.17420387 -1.00000000 -16.18022919
v -11.17420387 -1.00000000 -16.18022919
v -10.62473106 5.06425047 -16.18022537
v -10.62473106 5.06425047 -16.18022537
v -10.62473106 5.06425047 -18.43514824
v -10.62473106 5.06425047 -18.43514824
v -11.17420483 -1.00000000 -18.43515015
v -11.17420483 -1.00000000 -18.43515015
v -11.17420673 -1.00000000 -23.87253571
v -11.17420673 -1.00000000 -23.87253571
v -10.62473297 5.06425047 -23.87253380
v -10.62473297 5.06425047 -23.87253380
v -10.62473297 5.06425047 -26.12745476
v -10.62473297 5.06425047 -26.12745476
v -11.17420769 -1.00000000 -26.12745476
v -11.17420769 -1.00000000 -26.12745476
v -11.17420959 -1.00000000 -31.56484222
v -11.17420959 -1.00000000 -31.56484222
v -10.62473583 5.06425047 -31.56484222
v -10.62473583 5.06425047 -31.56484222
v -10.62473679 5.06425047 -33.81976318
v -10.62473679 5.06425047 -33.81976318
v -11.17420959 -1.00000000 -33.81976318
v -11.17420959 -1.00000000 -33.81976318
v -11.17421150 -1.00000000 -39.25714874
v -11.17421150 -1.00000000 -39.25714874
v -10.62473774 5.06425047 -39.25714874
v -10.62473774 5.06425047 -39.25714874
v -10.62473869 5.06425047 -41.51206970
v -10.62473869 5.06425047 -41.51206970
v -11.17421246 -1.00000000 -41.51206970
v -11.17421246 -1.00000000 -41.51206970
v 11.17418194 -1.00000000 -50.00000381
v 11.17418194 -1.00000000 -50.00000381
v 10.62470818 5.06425047 -50.00000381
v 10.62470818 5.06425047 -50.00000381
v 10.62470913 5.06425047 -47.53748703
v 10.62470913 5.06425047 -47.53748703
v 11.17418289 -1.00000000 -47.53749084
v 11.17418289 -1.00000000 -47.53749084
v 11.17418480 -1.00000000 -41.51207733
v 11.17418480 -1.00000000 -41.51207733
v 10.62471104 5.06425047 -41.51207733
v 10.62471104 5.06425047 -41.51207733
v 10.62471199 5.06425047 -39.25715637
v 10.62471199 5.06425047 -39.25715637
v 11.17418575 -1.00000000 -39.25715637
v 11.17418575 -1.00000000 -39.25715637
v 11.17418671 -1.00000000 -33.81977081
v 11.17418671 -1.00000000 -33.81977081
v 10.62471390 5.06425047 -33.81977081
v 10.62471390 5.06425047 -33.81977081
v 10.62471390 5.06425047 -31.56484985
v 10.62471390 5.06425047 -31.56484985
v 11.17418766 -1.00000000 -31.56484985
v 11.17418766 -1.00000000 -31.56484985
v 11.17419052 -1.00000000 -26.12746239
v 11.17419052 -1.00000000 -26.12746239
v 10.62471581 5.06425047 -26.12746239
v 10.62471581 5.06425047 -26.12746239
v 10.62471676 5.06425047 -23.87254333
v 10.62471676 5.06425047 -23.87254333
v 11.17419052 -1.00000000 -23.87254143
v 11.17419052 -1.00000000 -23.87254143
v 11.17419243 -1.00000000 -18.43515587
v 11.17419243 -1.00000000 -18.43515587
v 10.62471867 5.06425047 -18.43515778
v 10.62471867 5.06425047 -18.43515778
v 10.62471962 5.06425047 -16.18023682
v 10.62471962 5.06425047 -16.18023682
v 11.17419243 -1.00000000 -16.18023300
v 11.17419243 -1.00000000 -16.18023300
v 11.17419529 -1.00000000 -10.74284744
v 11.17419529 -1.00000000 -10.74284744
v 10.62472153 5.06425047 -10.74284744
v 10.62472153 5.06425047 -10.74284744
v 10.62472153 5.06425047 -8.48793030
v 10.62472153 5.06425047 -8.48793030
v 11.17419624 -1.00000000 -8.48792648
v 11.17419624 -1.00000000 -8.48792648
v 10.00000000 -1.00000000 -2.46251678
v 10.00000000 -1.00000000 -2.46251678
v 9.99999809 -1.00000000 -8.48792648
v 9.99999809 -1.00000000 -8.48792648
v 9.99999714 -1.00000000 -10.74284744
v 9.99999714 -1.00000000 -10.74284744
v 9.99999428 -1.00000000 -16.18023300
v 9.99999428 -1.00000000 -16.18023300
v 9.99999428 -1.00000000 -18.43515587
v 9.99999428 -1.00000000 -18.43515587
v 9.99999237 -1.00000000 -23.87254143
v 9.99999237 -1.00000000 -23.87254143
v 9.99999237 -1.00000000 -26.12746239
v 9.99999237 -1.00000000 -26.12746239
v 9.99998951 -1.00000000 -31.56484985
v 9.99998951 -1.00000000 -31.56484985
v 9.99998856 -1.00000000 -33.81977081
v 9.99998856 -1.00000000 -33.81977081
v 9.99998760 -1.00000000 -39.25715637
v 9.99998760 -1.00000000 -39.25715637
v 9.99998665 -1.00000000 -41.51207733
v 9.99998665 -1.00000000 -41.51207733
v 9.99998474 -1.00000000 -47.53749084
v 9.99998474 -1.00000000 -47.53749084
v -10.00000191 3.93001151 -3.35231400
v -10.00000191 3.93001151 -3.35231400
v -10.00000191 3.93001151 -3.35231400
v -10.00000858 3.93001151 -23.25139046
v -10.00000858 3.93001151 -23.25139046
v -10.00000858 3.93001151 -23.25139046
v -10.00000668 3.93001151 -19.05629158
v -10.00000668 3.93001151 -19.05629158
v -10.00000668 3.93001151 -19.05629158
v -10.00001144 3.93001151 -34.44090652
v -10.00001144 3.93001151 -34.44090652
v -10.00001144 3.93001151 -34.44090652
v -10.00001526 3.93001151 -42.43683243
v -10.00001526 3.93001151 -42.43683243
v -10.00001526 3.93001151 -42.43683243
v 9.99999237 3.93001151 -26.74860573
v 9.99999237 3.93001151 -26.74860573
v 9.99999237 3.93001151 -26.74860573
v 9.99999237 3.93001151 -23.25139999
v 9.99999237 3.93001151 -23.25139999
v 9.99999237 3.93001151 -23.25139999
v 9.99999714 3.93001151 -11.36399078
v 9.99999714 3.93001151 -11.36399078
v 9.99999714 3.93001151 -11.36399078
v -10.00001621 -1.00000000 -47.53748322
v -10.00001621 -1.00000000 -47.53748322
v 9.99999809 3.93001151 -7.59812546
v 9.99999809 3.93001151 -7.59812546
v 9.99999809 3.93001151 -7.59812546
v -10.00001431 -1.00000000 -41.51207352
v -10.00001431 -1.00000000 -41.51207352
v -10.00001335 -1.00000000 -39.25715256
v -10.00001335 -1.00000000 -39.25715256
v -10.00001144 -1.00000000 -33.81976318
v -10.00001144 -1.00000000 -33.81976318
v -10.00001144 -1.00000000 -31.56484222
v -10.00001144 -1.00000000 -31.56484222
v -10.00000954 -1.00000000 -26.12745476
v -10.00000954 -1.00000000 -26.12745476
v -10.00000858 -1.00000000 -23.87253571
v -10.00000858 -1.00000000 -23.87253571
v -10.00000668 -1.00000000 -18.43515015
v -10.00000668 -1.00000000 -18.43515015
v -10.00000572 -1.00000000 -16.18022919
v -10.00000572 -1.00000000 -16.18022919
v -10.00000381 -1.00000000 -10.74283981
v -10.00000381 -1.00000000 -10.74283981
v -10.00000381 -1.00000000 -8.48792267
v -10.00000381 -1.00000000 -8.48792267
v -10.00000095 -1.00000000 -2.46250916
v -10.00000095 -1.00000000 -2.46250916
v -10.00000381 3.93001151 -7.59811401
v -10.00000381 3.93001151 -7.59811401
v -10.00000381 3.93001151 -7.59811401
v -10.00000381 3.93001151 -11.36398315
v -10.00000381 3.93001151 -11.36398315
v -10.00000381 3.93001151 -11.36398315
v -10.00000572 3.93001151 -15.55908203
v -10.00000572 3.93001151 -15.55908203
v -10.00000572 3.93001151 -15.55908203
v -10.00000954 3.93001151 -26.74859810
v -10.00000954 3.93001151 -26.74859810
v -10.00000954 3.93001151 -26.74859810
v -10.00001049 3.93001151 -30.94369888
v -10.00001049 3.93001151 -30.94369888
v -10.00001049 3.93001151 -30.94369888
v -10.00001335 3.93001151 -38.63600922
v -10.00001335 3.93001151 -38.63600922
v -10.00001335 3.93001151 -38.63600922
v -10.00001526 3.93001151 -46.61272430
v -10.00001526 3.93001151 -46.61272430
v -10.00001526 3.93001151 -46.61272430
v 9.99998569 3.93001151 -46.61272812
v 9.99998569 3.93001151 -46.61272812
v 9.99998569 3.93001151 -46.61272812
v 9.99998665 3.93001151 -42.43684006
v 9.99998665 3.93001151 -42.43684006
v 9.99998665 3.93001151 -42.43684006
v 9.99998760 3.93001151 -38.63601303
v 9.99998760 3.93001151 -38.63601303
v 9.99998760 3.93001151 -38.63601303
v 9.99998856 3.93001151 -34.44091415
v 9.99998856 3.93001151 -34.44091415
v 9.99998856 3.93001151 -34.44091415
v 9.99999046 3.93001151 -30.94370651
v 9.99999046 3.93001151 -30.94370651
v 9.99999046 3.93001151 -30.94370651
v 9.99999428 3.93001151 -19.05630112
v 9.99999428 3.93001151 -19.05630112
v 9.99999428 3.93001151 -19.05630112
v 9.99999523 3.93001151 -15.55909348
v 9.99999523 3.93001151 -15.55909348
v 9.99999523 3.93001151 -15.55909348
v 9.99999905 3.93001151 -3.35232162
v 9.99999905 3.93001151 -3.35232162
v 9.99999905 3.93001151 -3.35232162
v 9.99999428 1.70838153 -19.05629921
v 9.99999428 1.70838153 -19.05629921
v 9.99999428 1.70838153 -19.05629921
v 9.99999237 1.70838165 -26.74860573
v 9.99999237 1.70838165 -26.74860573
v 9.99999237 1.70838165 -26.74860573
v 9.99999046 1.70838165 -30.94370651
v 9.99999046 1.70838165 -30.94370651
v 9.99999046 1.70838165 -30.94370651
v -10.00001526 1.70838153 -42.43683243
v -10.00001526 1.70838153 -42.43683243
v -10.00001526 1.70838153 -42.43683243
v -10.00001144 1.70838165 -34.44090652
v -10.00001144 1.70838165 -34.44090652
v -10.00001144 1.70838165 -34.44090652
v -10.00001049 1.70838165 -30.94369888
v -10.00001049 1.70838165 -30.94369888
v -10.00001049 1.70838165 -30.94369888
v -10.00000954 1.70838165 -26.74859810
v -10.00000954 1.70838165 -26.74859810
v -10.00000954 1.70838165 -26.74859810
v -10.00000858 1.70838153 -23.25139236
v -10.00000858 1.70838153 -23.25139236
v -10.00000858 1.70838153 -23.25139236
v -10.00000668 1.70838153 -19.05629349
v -10.00000668 1.70838153 -19.05629349
v -10.00000668 1.70838153 -19.05629349
v -10.00000572 1.70838153 -15.55908585
v -10.00000572 1.70838153 -15.55908585
v -10.00000572 1.70838153 -15.55908585
v -10.00000381 1.70838153 -11.36398315
v -10.00000381 1.70838153 -11.36398315
v -10.00000381 1.70838153 -11.36398315
v -10.00000191 1.70838153 -3.35231400
v -10.00000191 1.70838153 -3.35231400
v -10.00000191 1.70838153 -3.35231400
v -9.36671734 1.70838153 -3.35231400
v -9.36671734 1.70838153 -3.35231400
v -9.36671734 1.70838153 -3.35231400
v -9.36671734 3.93001151 -3.35231400
v -9.36671734 3.93001151 -3.35231400
v -9.36671734 3.93001151 -3.35231400
v -9.36671829 3.93001151 -7.59811401
v -9.36671829 3.93001151 -7.59811401
v -9.36671829 3.93001151 -7.59811401
v -9.36671829 1.70838153 -7.59811783
v -9.36671829 1.70838153 -7.59811783
v -9.36671829 1.70838153 -7.59811783
v -9.36671925 1.70838153 -11.36398315
v -9.36671925 1.70838153 -11.36398315
v -9.36671925 1.70838153 -11.36398315
v -9.36671925 3.93001151 -11.36398315
v -9.36671925 3.93001151 -11.36398315
v -9.36671925 3.93001151 -11.36398315
v -9.36672115 3.93001151 -15.55908203
v -9.36672115 3.93001151 -15.55908203
v -9.36672115 3.93001151 -15.55908203
v -9.36672115 1.70838153 -15.55908585
v -9.36672115 1.70838153 -15.55908585
v -9.36672115 1.70838153 -15.55908585
v -9.36672211 1.70838153 -19.05629349
v -9.36672211 1.70838153 -19.05629349
v -9.36672211 1.70838153 -19.05629349
v -9.36672211 3.93001151 -19.05629158
v -9.36672211 3.93001151 -19.05629158
v -9.36672211 3.93001151 -19.05629158
v -9.36672401 3.93001151 -23.25139046
v -9.36672401 3.93001151 -23.25139046
v -9.36672401 3.93001151 -23.25139046
v -9.36672401 1.70838153 -23.25139236
v -9.36672401 1.70838153 -23.25139236
v -9.36672401 1.70838153 -23.25139236
v -9.36672401 1.70838165 -26.74859810
v -9.36672401 1.70838165 -26.74859810
v -9.36672401 1.70838165 -26.74859810
v -9.36672401 3.93001151 -26.74859810
v -9.36672401 3.93001151 -26.74859810
v -9.36672401 3.93001151 -26.74859810
v -9.36672592 3.93001151 -30.94369888
v -9.36672592 3.93001151 -30.94369888
v -9.36672592 3.93001151 -30.94369888
v -9.36672592 1.70838165 -30.94369888
v -9.36672592 1.70838165 -30.94369888
v -9.36672592 1.70838165 -30.94369888
v -9.36672783 1.70838165 -34.44090652
v -9.36672783 1.70838165 -34.44090652
v -9.36672783 1.70838165 -34.44090652
v -9.36672783 3.93001151 -34.44090652
v -9.36672783 3.93001151 -34.44090652
v -9.36672783 3.93001151 -34.44090652
v -9.36672878 3.93001151 -38.63600922
v -9.36672878 3.93001151 -38.63600922
v -9.36672878 3.93001151 -38.63600922
v -9.36672878 1.70838165 -38.63600922
v -9.36672878 1.70838165 -38.63600922
v -9.36672878 1.70838165 -38.63600922
v -9.36672974 1.70838153 -42.43683243
v -9.36672974 1.70838153 -42.43683243
v -9.36672974 1.70838153 -42.43683243
v -9.36672974 3.93001151 -42.43683243
v -9.36672974 3.93001151 -42.43683243
v -9.36672974 3.93001151 -42.43683243
v -9.36673069 3.93001151 -46.61272430
v -9.36673069 3.93001151 -46.61272430
v -9.36673069 3.93001151 -46.61272430
v -9.36673069 1.70838153 -46.61272049
v -9.36673069 1.70838153 -46.61272049
v -9.36673069 1.70838153 -46.61272049
v 9.36670113 1.70838153 -46.61272812
v 9.36670113 1.70838153 -46.61272812
v 9.36670113 1.70838153 -46.61272812
v 9.36670113 3.93001151 -46.61272812
v 9.36670113 3.93001151 -46.61272812
v 9.36670113 3.93001151 -46.61272812
v 9.36670113 3.93001151 -42.43684006
v 9.36670113 3.93001151 -42.43684006
v 9.36670113 3.93001151 -42.43684006
v 9.36670113 1.70838153 -42.43684006
v 9.36670113 1.70838153 -42.43684006
v 9.36670113 1.70838153 -42.43684006
v 9.36670303 1.70838165 -38.63601303
v 9.36670303 1.70838165 -38.63601303
v 9.36670303 1.70838165 -38.63601303
v 9.36670303 3.93001151 -38.63601303
v 9.36670303 3.93001151 -38.63601303
v 9.36670303 3.93001151 -38.63601303
v 9.36670494 3.93001151 -34.44091415
v 9.36670494 3.93001151 -34.44091415
v 9.36670494 3.93001151 -34.44091415
v 9.36670494 1.70838165 -34.44091415
v 9.36670494 1.70838165 -34.44091415
v 9.36670494 1.70838165 -34.44091415
v 9.36670589 1.70838165 -30.94370651
v 9.36670589 1.70838165 -30.94370651
v 9.36670589 1.70838165 -30.94370651
v 9.36670589 3.93001151 -30.94370651
v 9.36670589 3.93001151 -30.94370651
v 9.36670589 3.93001151 -30.94370651
v 9.36670685 3.93001151 -26.74860573
v 9.36670685 3.93001151 -26.74860573
v 9.36670685 3.93001151 -26.74860573
v 9.36670685 1.70838165 -26.74860573
v 9.36670685 1.70838165 -26.74860573
v 9.36670685 1.70838165 -26.74860573
v 9.36670780 1.70838153 -23.25139809
v 9.36670780 1.70838153 -23.25139809
v 9.36670780 1.70838153 -23.25139809
v 9.36670780 3.93001151 -23.25139999
v 9.36670780 3.93001151 -23.25139999
v 9.36670780 3.93001151 -23.25139999
v 9.36670971 3.93001151 -19.05630112
v 9.36670971 3.93001151 -19.05630112
v 9.36670971 3.93001151 -19.05630112
v 9.36670971 1.70838153 -19.05629921
v 9.36670971 1.70838153 -19.05629921
v 9.36670971 1.70838153 -19.05629921
v 9.36671066 1.70838153 -15.55908966
v 9.36671066 1.70838153 -15.55908966
v 9.36671066 1.70838153 -15.55908966
v 9.36671066 3.93001151 -15.55909348
v 9.36671066 3.93001151 -15.55909348
v 9.36671066 3.93001151 -15.55909348
v 9.36671257 3.93001151 -11.36399078
v 9.36671257 3.93001151 -11.36399078
v 9.36671257 3.93001151 -11.36399078
v 9.36671257 1.70838153 -11.36399078
v 9.36671257 1.70838153 -11.36399078
v 9.36671257 1.70838153 -11.36399078
v 9.36671257 1.70838153 -7.59812164
v 9.36671257 1.70838153 -7.59812164
v 9.36671257 1.70838153 -7.59812164
v 9.36671257 3.93001151 -7.59812546
v 9.36671257 3.93001151 -7.59812546
v 9.36671257 3.93001151 -7.59812546
v 9.36671448 3.93001151 -3.35232162
v 9.36671448 3.93001151 -3.35232162
v 9.36671448 3.93001151 -3.35232162
v 9.36671448 1.70838153 -3.35232162
v 9.36671448 1.70838153 -3.35232162
v 9.36671448 1.70838153 -3.35232162
v 2.99998403 -1.00000000 -50.10000229
v 2.99998403 -1.00000000 -50.10000229
v 2.99998403 3.00000000 -50.10000229
v 2.99998403 3.00000000 -50.10000229
v 2.99998403 3.00000000 -50.10000229
v 2.99998403 -1.00000000 -50.00000000
v 2.99998403 3.00000000 -50.00000000
v 2.99998403 3.00000000 -50.00000000
v -3.00001669 -1.00000000 -50.09999847
v -3.00001669 -1.00000000 -50.09999847
v -3.00001669 3.00000000 -50.09999847
v -3.00001669 3.00000000 -50.09999847
v -3.00001669 3.00000000 -50.09999847
v -3.00001669 -1.00000000 -50.00000000
v -3.00001669 3.00000000 -50.00000000
v -3.00001669 3.00000000 -50.00000000
vn 0.00000000 0.00000000 1.00000000
vn -1.00000000 0.00000000 0.00000000
vn 0.00000000 0.00000000 1.00000000
vn 0.00000000 1.00000000 0.00000000
vn -1.00000000 0.00000000 0.00000000
vn -1.00000000 0.00000000 0.00000000
vn 0.00000000 1.00000000 0.00000000
vn -1.00000000 0.00000000 0.00000000
vn 0.00000000 0.00000000 1.00000000
vn 1.00000000 0.00000000 0.00000000
vn 0.00000000 0.00000000 1.00000000
vn 0.00000000 1.00000000 0.00000000
vn 1.00000000 0.00000000 0.00000000
vn 1.00000000 0.00000000 0.00000000
vn 0.00000000 1.00000000 0.00000000
vn 1.00000000 0.00000000 0.00000000
vn 0.00000000 0.00000000 1.00000000
vn 0.00000000 0.00000000 1.00000000
vn 0.00000000 0.00000000 -1.00000000
vn 0.00000000 0.00000000 -1.00000000
vn 0.00000000 0.00000000 1.00000000
vn 0.00000000 0.00000000 1.00000000
vn 0.00000000 0.00000000 -1.00000000
vn 0.00000000 0.00000000 -1.00000000
vn 0.00000000 0.00000000 -1.00000000
vn 1.00000000 0.00000000 0.00000000
vn -0.17669387 -0.98426586 0.00000000
vn 0.00000000 0.00000000 -1.00000000
vn 0.17669387 -0.98426586 0.00000000
vn -1.00000000 0.00000000 0.00000000
vn 0.00000000 0.00000000 1.00000000
vn 1.00000000 0.00000000 0.00000000
vn -0.17669387 -0.98426586 0.00000000
vn 0.00000000 0.00000000 1.00000000
vn 0.17669387 -0.98426586 0.00000000
vn -1.00000000 0.00000000 0.00000000
vn 0.00000000 0.00000000 -1.00000000
vn 0.00000000 0.00000000 -1.00000000
vn 0.17669387 -0.98426586 0.00000000
vn -0.17669387 -0.98426586 0.00000000
vn 0.00000000 0.00000000 1.00000000
vn 0.00000000 0.00000000 1.00000000
vn 0.17669387 -0.98426586 0.00000000
vn -0.17669387 -0.98426586 0.00000000
vn 0.00000000 0.00000000 1.00000000
vn 0.00000000 0.00000000 -1.00000000
vn 0.00000000 0.00000000 -1.00000000
vn 0.00000000 0.00000000 1.00000000
vn 0.00000000 0.00000000 -1.00000000
vn 0.17669387 0.98426586 0.00000000
vn 1.00000000 0.00000000 0.00000000
vn 0.00000000 0.00000000 -1.00000000
vn -0.17669387 0.98426586 0.00000000
vn -1.00000000 0.00000000 0.00000000
vn 0.00000000 0.00000000 1.00000000
vn 0.17669387 0.98426586 0.00000000
vn 1.00000000 0.00000000 0.00000000
vn 0.00000000 0.00000000 1.00000000
vn -0.17669387 0.98426586 0.00000000
vn -1.00000000 0.00000000 0.00000000
vn 0.00000000 0.00000000 -1.00000000
vn 0.00000000 0.00000000 -1.00000000
vn 0.17669387 0.98426586 0.00000000
vn -0.17669387 0.98426586 0.00000000
vn 0.00000000 0.00000000 1.00000000
vn 0.00000000 0.00000000 1.00000000
vn 0.17669387 0.98426586 0.00000000
vn -0.17669387 0.98426586 0.00000000
vn 0.00000000 0.00000000 -1.00000000
vn 0.00000000 1.00000000 0.00000000
vn 1.00000000 0.00000000 0.00000000
vn 0.00000000 0.00000000 1.00000000
vn 0.00000000 1.00000000 0.00000000
vn 1.00000000 0.00000000 0.00000000
vn 0.00000000 0.00000000 -1.00000000
vn 0.00000000 1.00000000 0.00000000
vn 1.00000000 0.00000000 0.00000000
vn 0.00000000 0.00000000 1.00000000
vn 0.00000000 1.00000000 0.00000000
vn 1.00000000 0.00000000 0.00000000
vn 0.00000000 0.00000000 1.00000000
vn 0.00000000 1.00000000 0.00000000
vn 1.00000000 0.00000000 0.00000000
vn 0.00000000 0.00000000 -1.00000000
vn 0.00000000 1.00000000 0.00000000
vn 1.00000000 0.00000000 0.00000000
vn 0.00000000 0.00000000 1.00000000
vn 0.00000000 1.00000000 0.00000000
vn 1.00000000 0.00000000 0.00000000
vn 0.00000000 0.00000000 -1.00000000
vn 0.00000000 1.00000000 0.00000000
vn 1.00000000 0.00000000 0.00000000
vn 0.00000000 0.00000000 1.00000000
vn 0.00000000 1.00000000 0.00000000
vn 1.00000000 0.00000000 0.00000000
vn 0.00000000 0.00000000 -1.00000000
vn -1.00000000 0.00000000 0.00000000
vn 0.00000000 0.00000000 1.00000000
vn -1.00000000 0.00000000 0.00000000
vn 0.00000000 0.00000000 -1.00000000
vn -1.00000000 0.00000000 0.00000000
vn 0.00000000 0.00000000 1.00000000
vn -1.00000000 0.00000000 0.00000000
vn 0.00000000 0.00000000 -1.00000000
vn -1.00000000 0.00000000 0.00000000
vn 0.00000000 0.00000000 1.00000000
vn -1.00000000 0.00000000 0.00000000
vn 0.00000000 0.00000000 -1.00000000
vn -1.00000000 0.00000000 0.00000000
vn 0.00000000 0.00000000 1.00000000
vn -1.00000000 0.00000000 0.00000000
vn 0.00000000 0.00000000 -1.00000000
vn -1.00000000 0.00000000 0.00000000
vn 0.00000000 0.00000000 1.00000000
vn -1.00000000 0.00000000 0.00000000
vn 0.00000000 0.00000000 -1.00000000
vn -1.00000000 0.00000000 0.00000000
vn 0.00000000 0.00000000 1.00000000
vn -1.00000000 0.00000000 0.00000000
vn 0.00000000 0.00000000 1.00000000
vn 1.00000000 0.00000000 0.00000000
vn 0.00000000 0.00000000 -1.00000000
vn 1.00000000 0.00000000 0.00000000
vn 0.00000000 0.00000000 1.00000000
vn 1.00000000 0.00000000 0.00000000
vn 0.00000000 0.00000000 -1.00000000
vn 1.00000000 0.00000000 0.00000000
vn 0.00000000 0.00000000 1.00000000
vn 1.00000000 0.00000000 0.00000000
vn 0.00000000 0.00000000 -1.00000000
vn 1.00000000 0.00000000 0.00000000
vn 0.00000000 0.00000000 1.00000000
vn 1.00000000 0.00000000 0.00000000
vn 0.00000000 0.00000000 -1.00000000
vn 1.00000000 0.00000000 0.00000000
vn 0.00000000 0.00000000 1.00000000
vn 1.00000000 0.00000000 0.00000000
vn 0.00000000 0.00000000 -1.00000000
vn 1.00000000 0.00000000 0.00000000
vn 0.00000000 0.00000000 1.00000000
vn 1.00000000 0.00000000 0.00000000
vn 0.00000000 0.00000000 -1.00000000
vn 1.00000000 0.00000000 0.00000000
vn 0.00000000 0.00000000 1.00000000
vn 0.00000000 1.00000000 0.00000000
vn -1.00000000 0.00000000 0.00000000
vn 0.00000000 0.00000000 1.00000000
vn 0.00000000 1.00000000 0.00000000
vn -1.00000000 0.00000000 0.00000000
vn 0.00000000 0.00000000 1.00000000
vn 0.00000000 1.00000000 0.00000000
vn -1.00000000 0.00000000 0.00000000
vn 0.00000000 0.00000000 -1.00000000
vn 0.99592346 0.09020213 0.00000000
vn 0.00000000 0.00000000 -1.00000000
vn 0.99592346 0.09020213 0.00000000
vn 0.00000000 0.00000000 1.00000000
vn 0.99592346 0.09020213 0.00000000
vn 0.00000000 0.00000000 1.00000000
vn 0.99592346 0.09020213 0.00000000
vn 0.00000000 0.00000000 1.00000000
vn -0.99592346 0.09020213 0.00000000
vn 0.00000000 0.00000000 1.00000000
vn -0.99592346 0.09020213 0.00000000
vn 0.00000000 0.00000000 -1.00000000
vn -0.99592346 0.09020213 0.00000000
vn 0.00000000 0.00000000 -1.00000000
vn -0.99592346 0.09020213 0.00000000
vn 0.00000000 0.00000000 1.00000000
vn -0.99592346 0.09020213 0.00000000
vn 0.00000000 0.00000000 1.00000000
vn -0.99592346 0.09020213 0.00000000
vn 0.00000000 0.00000000 -1.00000000
vn -0.99592346 0.09020213 0.00000000
vn 0.00000000 0.00000000 -1.00000000
vn -0.99592346 0.09020213 0.00000000
vn 0.00000000 0.00000000 1.00000000
vn -0.99592346 0.09020213 0.00000000
vn 0.00000000 0.00000000 1.00000000
vn -0.99592346 0.09020213 0.00000000
vn 0.00000000 0.00000000 -1.00000000
vn -0.99592346 0.09020213 0.00000000
vn 0.00000000 0.00000000 -1.00000000
vn -0.99592346 0.09020213 0.00000000
vn 0.00000000 0.00000000 1.00000000
vn -0.99592346 0.09020213 0.00000000
vn 0.00000000 0.00000000 1.00000000
vn -0.99592346 0.09020213 0.00000000
vn 0.00000000 0.00000000 -1.00000000
vn -0.99592346 0.09020213 0.00000000
vn 0.00000000 0.00000000 -1.00000000
vn -0.99592346 0.09020213 0.00000000
vn 0.00000000 0.00000000 1.00000000
vn -0.99592346 0.09020213 0.00000000
vn 0.00000000 0.00000000 1.00000000
vn -0.99592346 0.09020213 0.00000000
vn 0.00000000 0.00000000 -1.00000000
vn -0.99592346 0.09020213 0.00000000
vn 0.00000000 0.00000000 -1.00000000
vn -0.99592346 0.09020213 0.00000000
vn 0.00000000 0.00000000 1.00000000
vn -0.99592346 0.09020213 0.00000000
vn 0.00000000 0.00000000 1.00000000
vn -0.99592346 0.09020213 0.00000000
vn 0.00000000 0.00000000 -1.00000000
vn -0.99592346 0.09020213 0.00000000
vn 0.00000000 0.00000000 -1.00000000
vn -0.99592346 0.09020213 0.00000000
vn 0.00000000 0.00000000 1.00000000
vn -0.99592346 0.09020213 0.00000000
vn 0.00000000 0.00000000 1.00000000
vn -0.99592346 0.09020213 0.00000000
vn 0.00000000 0.00000000 -1.00000000
vn -0.99592346 0.09020213 0.00000000
vn 0.00000000 0.00000000 -1.00000000
vn -0.99592346 0.09020213 0.00000000
vn 0.00000000 0.00000000 -1.00000000
vn 0.99592346 0.09020213 0.00000000
vn 0.00000000 0.00000000 -1.00000000
vn 0.99592346 0.09020213 0.00000000
vn 0.00000000 0.00000000 1.00000000
vn 0.99592346 0.09020213 0.00000000
vn 0.00000000 0.00000000 1.00000000
vn 0.99592346 0.09020213 0.00000000
vn 0.00000000 0.00000000 -1.00000000
vn 0.99592346 0.09020213 0.00000000
vn 0.00000000 0.00000000 -1.00000000
vn 0.99592346 0.09020213 0.00000000
vn 0.00000000 0.00000000 1.00000000
vn 0.99592346 0.09020213 0.00000000
vn 0.00000000 0.00000000 1.00000000
vn 0.99592346 0.09020213 0.00000000
vn 0.00000000 0.00000000 -1.00000000
vn 0.99592346 0.09020213 0.00000000
vn 0.00000000 0.00000000 -1.00000000
vn 0.99592346 0.09020213 0.00000000
vn 0.00000000 0.00000000 1.00000000
vn 0.99592346 0.09020213 0.00000000
vn 0.00000000 0.00000000 1.00000000
vn 0.99592346 0.09020213 0.00000000
vn 0.00000000 0.00000000 -1.00000000
vn 0.99592346 0.09020213 0.00000000
vn 0.00000000 0.00000000 -1.00000000
vn 0.99592346 0.09020213 0.00000000
vn 0.00000000 0.00000000 1.00000000
vn 0.99592346 0.09020213 0.00000000
vn 0.00000000 0.00000000 1.00000000
vn 0.99592346 0.09020213 0.00000000
vn 0.00000000 0.00000000 -1.00000000
vn 0.99592346 0.09020213 0.00000000
vn 0.00000000 0.00000000 -1.00000000
vn 0.99592346 0.09020213 0.00000000
vn 0.00000000 0.00000000 1.00000000
vn 0.99592346 0.09020213 0.00000000
vn 0.00000000 0.00000000 1.00000000
vn 0.99592346 0.09020213 0.00000000
vn 0.00000000 0.00000000 -1.00000000
vn 0.99592346 0.09020213 0.00000000
vn 0.00000000 0.00000000 -1.00000000
vn 0.99592346 0.09020213 0.00000000
vn 0.00000000 0.00000000 1.00000000
vn 0.99592346 0.09020213 0.00000000
vn 0.00000000 0.00000000 1.00000000
vn 0.99592346 0.09020213 0.00000000
vn 0.00000000 0.00000000 -1.00000000
vn 1.00000000 0.00000000 0.00000000
vn 0.00000000 0.00000000 1.00000000
vn 1.00000000 0.00000000 0.00000000
vn 0.00000000 0.00000000 -1.00000000
vn 1.00000000 0.00000000 0.00000000
vn 0.00000000 0.00000000 1.00000000
vn 1.00000000 0.00000000 0.00000000
vn 0.00000000 0.00000000 -1.00000000
vn 1.00000000 0.00000000 0.00000000
vn 0.00000000 0.00000000 1.00000000
vn 1.00000000 0.00000000 0.00000000
vn 0.00000000 0.00000000 -1.00000000
vn 1.00000000 0.00000000 0.00000000
vn 0.00000000 0.00000000 1.00000000
vn 1.00000000 0.00000000 0.00000000
vn 0.00000000 0.00000000 -1.00000000
vn 1.00000000 0.00000000 0.00000000
vn 0.00000000 0.00000000 1.00000000
vn 1.00000000 0.00000000 0.00000000
vn 0.00000000 0.00000000 -1.00000000
vn 1.00000000 0.00000000 0.00000000
vn 0.00000000 0.00000000 1.00000000
vn 1.00000000 0.00000000 0.00000000
vn 0.00000000 0.00000000 -1.00000000
vn 0.00000000 -1.00000000 0.00000000
vn -1.00000000 0.00000000 0.00000000
vn 0.00000000 0.00000000 1.00000000
vn 0.00000000 -1.00000000 0.00000000
vn -1.00000000 0.00000000 0.00000000
vn 0.00000000 0.00000000 -1.00000000
vn 0.00000000 -1.00000000 0.00000000
vn -1.00000000 0.00000000 0.00000000
vn 0.00000000 0.00000000 -1.00000000
vn 0.00000000 -1.00000000 0.00000000
vn -1.00000000 0.00000000 0.00000000
vn 0.00000000 0.00000000 -1.00000000
vn 0.00000000 -1.00000000 0.00000000
vn -1.00000000 0.00000000 0.00000000
vn 0.00000000 0.00000000 -1.00000000
vn 0.00000000 -1.00000000 0.00000000
vn 1.00000000 0.00000000 0.00000000
vn 0.00000000 0.00000000 1.00000000
vn 0.00000000 -1.00000000 0.00000000
vn 1.00000000 0.00000000 0.00000000
vn 0.00000000 0.00000000 -1.00000000
vn 0.00000000 -1.00000000 0.00000000
vn 1.00000000 0.00000000 0.00000000
vn 0.00000000 0.00000000 1.00000000
vn -1.00000000 0.00000000 0.00000000
vn 0.00000000 0.00000000 1.00000000
vn 0.00000000 -1.00000000 0.00000000
vn 1.00000000 0.00000000 0.00000000
vn 0.00000000 0.00000000 -1.00000000
vn -1.00000000 0.00000000 0.00000000
vn 0.00000000 0.00000000 1.00000000
vn -1.00000000 0.00000000 0.00000000
vn 0.00000000 0.00000000 -1.00000000
vn -1.00000000 0.00000000 0.00000000
vn 0.00000000 0.00000000 1.00000000
vn -1.00000000 0.00000000 0.00000000
vn 0.00000000 0.00000000 -1.00000000
vn -1.00000000 0.00000000 0.00000000
vn 0.00000000 0.00000000 1.00000000
vn -1.00000000 0.00000000 0.00000000
vn 0.00000000 0.00000000 -1.00000000
vn -1.00000000 0.00000000 0.00000000
vn 0.00000000 0.00000000 1.00000000
vn -1.00000000 0.00000000 0.00000000
vn 0.00000000 0.00000000 -1.00000000
vn -1.00000000 0.00000000 0.00000000
vn 0.00000000 0.00000000 1.00000000
vn -1.00000000 0.00000000 0.00000000
vn 0.00000000 0.00000000 -1.00000000
vn -1.00000000 0.00000000 0.00000000
vn 0.00000000 0.00000000 1.00000000
vn 0.00000000 -1.00000000 0.00000000
vn -1.00000000 0.00000000 0.00000000
vn 0.00000000 0.00000000 -1.00000000
vn 0.00000000 -1.00000000 0.00000000
vn -1.00000000 0.00000000 0.00000000
vn 0.00000000 0.00000000 1.00000000
vn 0.00000000 -1.00000000 0.00000000
vn -1.00000000 0.00000000 0.00000000
vn 0.00000000 0.00000000 -1.00000000
vn 0.00000000 -1.00000000 0.00000000
vn -1.00000000 0.00000000 0.00000000
vn 0.00000000 0.00000000 1.00000000
vn 0.00000000 -1.00000000 0.00000000
vn -1.00000000 0.00000000 0.00000000
vn 0.00000000 0.00000000 1.00000000
vn 0.00000000 -1.00000000 0.00000000
vn -1.00000000 0.00000000 0.00000000
vn 0.00000000 0.00000000 1.00000000
vn 0.00000000 -1.00000000 0.00000000
vn -1.00000000 0.00000000 0.00000000
vn 0.00000000 0.00000000 1.00000000
vn 0.00000000 -1.00000000 0.00000000
vn 1.00000000 0.00000000 0.00000000
vn 0.00000000 0.00000000 -1.00000000
vn 0.00000000 -1.00000000 0.00000000
vn 1.00000000 0.00000000 0.00000000
vn 0.00000000 0.00000000 1.00000000
vn 0.00000000 -1.00000000 0.00000000
vn 1.00000000 0.00000000 0.00000000
vn 0.00000000 0.00000000 -1.00000000
vn 0.00000000 -1.00000000 0.00000000
vn 1.00000000 0.00000000 0.00000000
vn 0.00000000 0.00000000 1.00000000
vn 0.00000000 -1.00000000 0.00000000
vn 1.00000000 0.00000000 0.00000000
vn 0.00000000 0.00000000 -1.00000000
vn 0.00000000 -1.00000000 0.00000000
vn 1.00000000 0.00000000 0.00000000
vn 0.00000000 0.00000000 1.00000000
vn 0.00000000 -1.00000000 0.00000000
vn 1.00000000 0.00000000 0.00000000
vn 0.00000000 0.00000000 -1.00000000
vn 0.00000000 -1.00000000 0.00000000
vn 1.00000000 0.00000000 0.00000000
vn 0.00000000 0.00000000 -1.00000000
vn 0.00000000 1.00000000 0.00000000
vn 1.00000000 0.00000000 0.00000000
vn 0.00000000 0.00000000 -1.00000000
vn 0.00000000 1.00000000 0.00000000
vn 1.00000000 0.00000000 0.00000000
vn 0.00000000 0.00000000 1.00000000
vn 0.00000000 1.00000000 0.00000000
vn 1.00000000 0.00000000 0.00000000
vn 0.00000000 0.00000000 -1.00000000
vn 0.00000000 1.00000000 0.00000000
vn -1.00000000 0.00000000 0.00000000
vn 0.00000000 0.00000000 -1.00000000
vn 0.00000000 1.00000000 0.00000000
vn -1.00000000 0.00000000 0.00000000
vn 0.00000000 0.00000000 1.00000000
vn 0.00000000 1.00000000 0.00000000
vn -1.00000000 0.00000000 0.00000000
vn 0.00000000 0.00000000 -1.00000000
vn 0.00000000 1.00000000 0.00000000
vn -1.00000000 0.00000000 0.00000000
vn 0.00000000 0.00000000 1.00000000
vn 0.00000000 1.00000000 0.00000000
vn -1.00000000 0.00000000 0.00000000
vn 0.00000000 0.00000000 -1.00000000
vn 0.00000000 1.00000000 0.00000000
vn -1.00000000 0.00000000 0.00000000
vn 0.00000000 0.00000000 1.00000000
vn 0.00000000 1.00000000 0.00000000
vn -1.00000000 0.00000000 0.00000000
vn 0.00000000 0.00000000 -1.00000000
vn 0.00000000 1.00000000 0.00000000
vn -1.00000000 0.00000000 0.00000000
vn 0.00000000 0.00000000 -1.00000000
vn 0.00000000 1.00000000 0.00000000
vn -1.00000000 0.00000000 0.00000000
vn 0.00000000 0.00000000 -1.00000000
vn 0.00000000 1.00000000 0.00000000
vn -1.00000000 0.00000000 0.00000000
vn 0.00000000 0.00000000 -1.00000000
vn 0.00000000 -1.00000000 0.00000000
vn -1.00000000 0.00000000 0.00000000
vn 0.00000000 0.00000000 1.00000000
vn 0.00000000 -1.00000000 0.00000000
vn -1.00000000 0.00000000 0.00000000
vn 0.00000000 0.00000000 1.00000000
vn 0.00000000 1.00000000 0.00000000
vn -1.00000000 0.00000000 0.00000000
vn 0.00000000 0.00000000 -1.00000000
vn 0.00000000 1.00000000 0.00000000
vn -1.00000000 0.00000000 0.00000000
vn 0.00000000 0.00000000 -1.00000000
vn 0.00000000 -1.00000000 0.00000000
vn -1.00000000 0.00000000 0.00000000
vn 0.00000000 0.00000000 1.00000000
vn 0.00000000 -1.00000000 0.00000000
vn -1.00000000 0.00000000 0.00000000
vn 0.00000000 0.00000000 1.00000000
vn 0.00000000 1.00000000 0.00000000
vn -1.00000000 0.00000000 0.00000000
vn 0.00000000 0.00000000 -1.00000000
vn 0.00000000 1.00000000 0.00000000
vn -1.00000000 0.00000000 0.00000000
vn 0.00000000 0.00000000 -1.00000000
vn 0.00000000 -1.00000000 0.00000000
vn -1.00000000 0.00000000 0.00000000
vn 0.00000000 0.00000000 1.00000000
vn 0.00000000 -1.00000000 0.00000000
vn -1.00000000 0.00000000 0.00000000
vn 0.00000000 0.00000000 1.00000000
vn 0.00000000 1.00000000 0.00000000
vn -1.00000000 0.00000000 0.00000000
vn 0.00000000 0.00000000 -1.00000000
vn 0.00000000 1.00000000 0.00000000
vn -1.00000000 0.00000000 0.00000000
vn 0.00000000 0.00000000 -1.00000000
vn 0.00000000 -1.00000000 0.00000000
vn -1.00000000 0.00000000 0.00000000
vn 0.00000000 0.00000000 1.00000000
vn 0.00000000 -1.00000000 0.00000000
vn -1.00000000 0.00000000 0.00000000
vn 0.00000000 0.00000000 1.00000000
vn 0.00000000 1.00000000 0.00000000
vn -1.00000000 0.00000000 0.00000000
vn 0.00000000 0.00000000 -1.00000000
vn 0.00000000 1.00000000 0.00000000
vn -1.00000000 0.00000000 0.00000000
vn 0.00000000 0.00000000 -1.00000000
vn 0.00000000 -1.00000000 0.00000000
vn -1.00000000 0.00000000 0.00000000
vn 0.00000000 0.00000000 1.00000000
vn 0.00000000 -1.00000000 0.00000000
vn -1.00000000 0.00000000 0.00000000
vn 0.00000000 0.00000000 1.00000000
vn 0.00000000 1.00000000 0.00000000
vn -1.00000000 0.00000000 0.00000000
vn 0.00000000 0.00000000 -1.00000000
vn 0.00000000 1.00000000 0.00000000
vn -1.00000000 0.00000000 0.00000000
vn 0.00000000 0.00000000 -1.00000000
vn 0.00000000 -1.00000000 0.00000000
vn -1.00000000 0.00000000 0.00000000
vn 0.00000000 0.00000000 1.00000000
vn 0.00000000 -1.00000000 0.00000000
vn -1.00000000 0.00000000 0.00000000
vn 0.00000000 0.00000000 1.00000000
vn 0.00000000 1.00000000 0.00000000
vn -1.00000000 0.00000000 0.00000000
vn 0.00000000 0.00000000 1.00000000
vn 0.00000000 1.00000000 0.00000000
vn 1.00000000 0.00000000 0.00000000
vn 0.00000000 0.00000000 1.00000000
vn 0.00000000 -1.00000000 0.00000000
vn 1.00000000 0.00000000 0.00000000
vn 0.00000000 0.00000000 -1.00000000
vn 0.00000000 -1.00000000 0.00000000
vn 1.00000000 0.00000000 0.00000000
vn 0.00000000 0.00000000 -1.00000000
vn 0.00000000 1.00000000 0.00000000
vn 1.00000000 0.00000000 0.00000000
vn 0.00000000 0.00000000 1.00000000
vn 0.00000000 1.00000000 0.00000000
vn 1.00000000 0.00000000 0.00000000
vn 0.00000000 0.00000000 1.00000000
vn 0.00000000 -1.00000000 0.00000000
vn 1.00000000 0.00000000 0.00000000
vn 0.00000000 0.00000000 -1.00000000
vn 0.00000000 -1.00000000 0.00000000
vn 1.00000000 0.00000000 0.00000000
vn 0.00000000 0.00000000 -1.00000000
vn 0.00000000 1.00000000 0.00000000
vn 1.00000000 0.00000000 0.00000000
vn 0.00000000 0.00000000 1.00000000
vn 0.00000000 1.00000000 0.00000000
vn 1.00000000 0.00000000 0.00000000
vn 0.00000000 0.00000000 1.00000000
vn 0.00000000 -1.00000000 0.00000000
vn 1.00000000 0.00000000 0.00000000
vn 0.00000000 0.00000000 -1.00000000
vn 0.00000000 -1.00000000 0.00000000
vn 1.00000000 0.00000000 0.00000000
vn 0.00000000 0.00000000 -1.00000000
vn 0.00000000 1.00000000 0.00000000
vn 1.00000000 0.00000000 0.00000000
vn 0.00000000 0.00000000 1.00000000
vn 0.00000000 1.00000000 0.00000000
vn 1.00000000 0.00000000 0.00000000
vn 0.00000000 0.00000000 1.00000000
vn 0.00000000 -1.00000000 0.00000000
vn 1.00000000 0.00000000 0.00000000
vn 0.00000000 0.00000000 -1.00000000
vn 0.00000000 -1.00000000 0.00000000
vn 1.00000000 0.00000000 0.00000000
vn 0.00000000 0.00000000 -1.00000000
vn 0.00000000 1.00000000 0.00000000
vn 1.00000000 0.00000000 0.00000000
vn 0.00000000 0.00000000 1.00000000
vn 0.00000000 1.00000000 0.00000000
vn 1.00000000 0.00000000 0.00000000
vn 0.00000000 0.00000000 1.00000000
vn 0.00000000 -1.00000000 0.00000000
vn 1.00000000 0.00000000 0.00000000
vn 0.00000000 0.00000000 -1.00000000
vn 0.00000000 -1.00000000 0.00000000
vn 1.00000000 0.00000000 0.00000000
vn 0.00000000 0.00000000 -1.00000000
vn 0.00000000 1.00000000 0.00000000
vn 1.00000000 0.00000000 0.00000000
vn 0.00000000 0.00000000 1.00000000
vn 0.00000000 1.00000000 0.00000000
vn 1.00000000 0.00000000 0.00000000
vn 0.00000000 0.00000000 1.00000000
vn 0.00000000 -1.00000000 0.00000000
vn 1.00000000 0.00000000 0.00000000
vn 0.00000000 0.00000000 -1.00000000
vn 0.00000000 -1.00000000 0.00000000
vn 1.00000000 0.00000000 0.00000000
vn 0.00000000 0.00000000 -1.00000000
vn 0.00000000 1.00000000 0.00000000
vn 1.00000000 0.00000000 0.00000000
vn 0.00000000 0.00000000 -1.00000000
vn 1.00000000 0.00000000 0.00000000
vn 0.00000000 0.00000000 -1.00000000
vn 0.00000000 1.00000000 0.00000000
vn 1.00000000 0.00000000 0.00000000
vn 1.00000000 0.00000000 0.00000000
vn 0.00000000 1.00000000 0.00000000
vn 1.00000000 0.00000000 0.00000000
vn 0.00000000 0.00000000 -1.00000000
vn -1.00000000 0.00000000 0.00000000
vn 0.00000000 0.00000000 -1.00000000
vn 0.00000000 1.00000000 0.00000000
vn -1.00000000 0.00000000 0.00000000
vn -1.00000000 0.00000000 0.00000000
vn 0.00000000 1.00000000 0.00000000
vn -1.00000000 0.00000000 0.00000000
vt 0.81223750 0.01497543
vt 0.81223750 0.01497543
vt 0.81223750 0.12682992
vt 0.81223750 0.12682992
vt 0.81223750 0.12682992
vt 0.80944115 0.01497543
vt 0.81223750 0.12962627
vt 0.80944115 0.12682992
vt 0.98001921 0.01497543
vt 0.98001921 0.01497543
vt 0.98001921 0.12682992
vt 0.98001921 0.12682992
vt 0.98001921 0.12682992
vt 0.98281556 0.01497543
vt 0.98001921 0.12962627
vt 0.98281556 0.12682992
vt 0.06040040 0.94931549
vt 0.06040022 0.82928038
vt 0.95821726 0.94531482
vt 0.95821726 0.82527983
vt 0.44902009 0.94931549
vt 0.44902009 0.82928038
vt 0.56959748 0.94531482
vt 0.56959748 0.82527983
vt 0.52685815 0.80254155
vt 0.02756023 0.03927058
vt 0.36773190 0.03934282
vt 0.52685815 0.79428929
vt 0.68231440 0.03934282
vt 0.01522590 0.04054177
vt 0.68023247 0.79159838
vt 0.02756028 0.72424316
vt 0.36773190 0.72726750
vt 0.52685815 0.80254155
vt 0.68231440 0.72726750
vt 0.01522590 0.72551435
vt 0.67974329 0.80254155
vt 0.67974329 0.79428929
vt 0.52502310 0.03934282
vt 0.52502310 0.03934282
vt 0.52734733 0.79159838
vt 0.67974329 0.80254155
vt 0.52502310 0.72726750
vt 0.52502310 0.72726750
vt 0.25471014 0.82928038
vt 0.76390743 0.98072767
vt 0.76390743 0.82527983
vt 0.25471014 0.98472834
vt 0.52734733 0.80523235
vt 0.04559267 0.03936249
vt 0.03019476 0.03927058
vt 0.52734733 0.79159868
vt 0.36017513 0.03936249
vt 0.01259142 0.04054177
vt 0.67974329 0.79428929
vt 0.04559267 0.72728723
vt 0.03019482 0.72424316
vt 0.52734733 0.80523235
vt 0.36017513 0.72728723
vt 0.01259142 0.72551435
vt 0.68023247 0.79159868
vt 0.68023258 0.80523235
vt 0.20288390 0.03936249
vt 0.20288390 0.03936249
vt 0.52685803 0.79428929
vt 0.68023247 0.80523235
vt 0.20288390 0.72728723
vt 0.20288390 0.72728723
vt 0.89702094 0.64241928
vt 0.78818524 0.30537224
vt 0.84628791 0.34420604
vt 0.91393155 0.64241958
vt 0.70104337 0.30537224
vt 0.96298450 0.34420604
vt 0.89702094 0.64241928
vt 0.78777432 0.30528593
vt 0.85463923 0.53106850
vt 0.91393107 0.64241934
vt 0.70167303 0.30528593
vt 0.97029650 0.53106850
vt 0.91393125 0.64241934
vt 0.70167303 0.30528593
vt 0.97029650 0.53095222
vt 0.89702064 0.64241952
vt 0.78777432 0.30528593
vt 0.85463923 0.53095210
vt 0.91393155 0.64241952
vt 0.70167279 0.30528593
vt 0.97029650 0.53095222
vt 0.89702094 0.64241952
vt 0.78777432 0.30528593
vt 0.84628791 0.34420604
vt 0.91393155 0.64241928
vt 0.70206738 0.30528593
vt 0.96298450 0.34420604
vt 0.70023906 0.79830587
vt 0.98812830 0.44034696
vt 0.80832976 0.61516446
vt 0.82114410 0.44034696
vt 0.71670675 0.61516446
vt 0.98742115 0.62671089
vt 0.80838835 0.61516446
vt 0.83751452 0.62671089
vt 0.71676517 0.61516446
vt 0.98742115 0.62659448
vt 0.80838817 0.61516446
vt 0.83751452 0.62659448
vt 0.71676517 0.61516446
vt 0.98742115 0.62659448
vt 0.80838835 0.61516446
vt 0.83751452 0.62659448
vt 0.71676517 0.61516446
vt 0.98742115 0.62659448
vt 0.80838817 0.61516446
vt 0.83751452 0.62659448
vt 0.71676517 0.61516446
vt 0.98812830 0.44034714
vt 0.88038230 0.79830587
vt 0.82114410 0.44034714
vt 0.69948840 0.79830587
vt 0.98812819 0.44034696
vt 0.80838817 0.61516446
vt 0.82114398 0.44034696
vt 0.71676517 0.61516446
vt 0.98742115 0.62659448
vt 0.80838835 0.61516446
vt 0.83751452 0.62659448
vt 0.71676517 0.61516446
vt 0.98742115 0.62659448
vt 0.80832976 0.61516446
vt 0.83751452 0.62659448
vt 0.71670675 0.61516446
vt 0.98742115 0.62659448
vt 0.80832976 0.61516446
vt 0.83751452 0.62659448
vt 0.71670675 0.61516446
vt 0.98742115 0.62671077
vt 0.80838817 0.61516446
vt 0.83751452 0.62671077
vt 0.71676517 0.61516446
vt 0.98812830 0.44034714
vt 0.87996304 0.79830587
vt 0.82114398 0.44034696
vt 0.89702064 0.64241934
vt 0.70200574 0.29243767
vt 0.84628791 0.34420604
vt 0.89702094 0.64241928
vt 0.70167303 0.29228818
vt 0.85463923 0.53095186
vt 0.89702094 0.64241928
vt 0.70097291 0.29243898
vt 0.84628791 0.34420604
vt 0.85962963 0.64236593
vt 0.85962963 0.64236593
vt 0.86006522 0.79830587
vt 0.86006522 0.79830587
vt 0.46115902 0.94711483
vt 0.79694080 0.79830587
vt 0.47183579 0.82928038
vt 0.79650480 0.64236593
vt 0.85999638 0.64236593
vt 0.85999638 0.64236593
vt 0.86043209 0.79830587
vt 0.86043209 0.79830587
vt 0.97035623 0.94311416
vt 0.79730755 0.79830587
vt 0.98103321 0.82527983
vt 0.79687184 0.64236593
vt 0.03758448 0.82928038
vt 0.78401172 0.64236593
vt 0.04826126 0.94711483
vt 0.78300345 0.79830587
vt 0.71987987 0.79830587
vt 0.71987987 0.79830587
vt 0.72088844 0.64236593
vt 0.72088844 0.64236593
vt 0.79161721 0.46105534
vt 0.79161721 0.46105534
vt 0.79161721 0.61516446
vt 0.79161721 0.61516446
vt 0.73460120 0.61516446
vt 0.73460120 0.61516446
vt 0.73460120 0.46105534
vt 0.73460120 0.46105534
vt 0.79167557 0.46105534
vt 0.79167557 0.46105534
vt 0.79167557 0.61516446
vt 0.79167557 0.61516446
vt 0.73465955 0.61516446
vt 0.73465955 0.61516446
vt 0.73465955 0.46105534
vt 0.73465955 0.46105534
vt 0.79167539 0.46105534
vt 0.79167539 0.46105534
vt 0.79167539 0.61516446
vt 0.79167539 0.61516446
vt 0.73465937 0.61516446
vt 0.73465937 0.61516446
vt 0.73465937 0.46105534
vt 0.73465937 0.46105534
vt 0.79167557 0.46105534
vt 0.79167557 0.46105534
vt 0.79167539 0.61516446
vt 0.79167539 0.61516446
vt 0.73465955 0.61516446
vt 0.73465955 0.61516446
vt 0.73465955 0.46105534
vt 0.73465955 0.46105534
vt 0.79167539 0.46105534
vt 0.79167539 0.46105534
vt 0.79167539 0.61516446
vt 0.79167539 0.61516446
vt 0.73465937 0.61516446
vt 0.73465937 0.61516446
vt 0.73465937 0.46105534
vt 0.73465937 0.46105534
vt 0.54678166 0.82527983
vt 0.78325576 0.64236593
vt 0.55745852 0.94311416
vt 0.78224719 0.79830587
vt 0.71912366 0.79830587
vt 0.71912366 0.79830587
vt 0.72013223 0.64236593
vt 0.72013223 0.64236593
vt 0.79167539 0.46105534
vt 0.79167539 0.46105534
vt 0.79167539 0.61516446
vt 0.79167539 0.61516446
vt 0.73465955 0.61516446
vt 0.73465955 0.61516446
vt 0.73465937 0.46105534
vt 0.73465937 0.46105534
vt 0.79167557 0.46105534
vt 0.79167557 0.46105534
vt 0.79167557 0.61516446
vt 0.79167557 0.61516446
vt 0.73465955 0.61516446
vt 0.73465955 0.61516446
vt 0.73465955 0.46105534
vt 0.73465955 0.46105534
vt 0.79161721 0.46105534
vt 0.79161721 0.46105534
vt 0.79161721 0.61516446
vt 0.79161721 0.61516446
vt 0.73460120 0.61516446
vt 0.73460120 0.61516446
vt 0.73460120 0.46105534
vt 0.73460120 0.46105534
vt 0.79161721 0.46105534
vt 0.79161721 0.46105534
vt 0.79161721 0.61516446
vt 0.79161721 0.61516446
vt 0.73460120 0.61516446
vt 0.73460120 0.61516446
vt 0.73460120 0.46105534
vt 0.73460120 0.46105534
vt 0.79167539 0.46105534
vt 0.79167539 0.46105534
vt 0.79167539 0.61516446
vt 0.79167539 0.61516446
vt 0.73465955 0.61516446
vt 0.73465955 0.61516446
vt 0.73465937 0.46105534
vt 0.73465937 0.46105534
vt 0.88556683 0.64236593
vt 0.82114410 0.26914763
vt 0.70509070 0.46105534
vt 0.98812830 0.26914775
vt 0.82490420 0.46105534
vt 0.83751452 0.45639932
vt 0.70503259 0.46105534
vt 0.98742115 0.45639944
vt 0.82484603 0.46105534
vt 0.83751452 0.45628309
vt 0.70503259 0.46105534
vt 0.98742115 0.45628309
vt 0.82484603 0.46105534
vt 0.83751452 0.45628309
vt 0.70509100 0.46105534
vt 0.98742115 0.45628309
vt 0.82490444 0.46105534
vt 0.83751452 0.45628309
vt 0.70509070 0.46105534
vt 0.98742115 0.45628309
vt 0.82490444 0.46105534
vt 0.82114398 0.26914775
vt 0.69388461 0.64236593
vt 0.98812830 0.26914763
vt 0.91393125 0.70174336
vt 0.79033071 0.27110702
vt 0.96298450 0.40577471
vt 0.89702094 0.70174336
vt 0.70422918 0.27110738
vt 0.85463923 0.59220153
vt 0.91393155 0.70174348
vt 0.79033059 0.27110738
vt 0.97029650 0.59220171
vt 0.91393155 0.70174336
vt 0.79033071 0.27110738
vt 0.97029650 0.59220147
vt 0.91393155 0.70174336
vt 0.78942519 0.27121526
vt 0.96298450 0.40577507
vt 0.89702064 0.70174336
vt 0.78993636 0.25810963
vt 0.85463923 0.59220171
vt 0.91393125 0.70174336
vt 0.70422918 0.25810927
vt 0.97029650 0.59220171
vt 0.89702094 0.70174336
vt 0.78993636 0.25810963
vt 0.85463923 0.59231794
vt 0.88598609 0.64236593
vt 0.82114410 0.26914775
vt 0.91393155 0.70174366
vt 0.70279437 0.25810963
vt 0.96298450 0.40577489
vt 0.70509070 0.46105534
vt 0.98812830 0.26914763
vt 0.82490444 0.46105534
vt 0.83751452 0.45628309
vt 0.70509070 0.46105534
vt 0.98742115 0.45628309
vt 0.82490420 0.46105534
vt 0.83751452 0.45628321
vt 0.70509070 0.46105534
vt 0.98742115 0.45628309
vt 0.82490444 0.46105534
vt 0.83751452 0.45628309
vt 0.70509100 0.46105534
vt 0.98742115 0.45628309
vt 0.82490444 0.46105534
vt 0.83751452 0.45639944
vt 0.70503259 0.46105534
vt 0.98742115 0.45639944
vt 0.82484603 0.46105534
vt 0.82114410 0.26914763
vt 0.69463527 0.64236593
vt 0.98812830 0.26914763
vt 0.89702094 0.70174336
vt 0.70318872 0.27110702
vt 0.84628791 0.40577471
vt 0.91393155 0.70174336
vt 0.79033071 0.27110702
vt 0.97029650 0.59231818
vt 0.89702094 0.70174336
vt 0.70422941 0.27110702
vt 0.85463923 0.59231818
vt 0.91393107 0.70174336
vt 0.78981954 0.27121526
vt 0.97029650 0.59220171
vt 0.89702094 0.70174366
vt 0.70371801 0.27121526
vt 0.85463923 0.59220171
vt 0.89702094 0.70174336
vt 0.70422918 0.27110738
vt 0.85463923 0.59220147
vt 0.89702064 0.70174336
vt 0.70371801 0.27121526
vt 0.84628791 0.40577489
vt 0.91393155 0.70174336
vt 0.70422941 0.25810963
vt 0.96298450 0.40577471
vt 0.89702094 0.70174348
vt 0.78993636 0.25810963
vt 0.84628791 0.40577471
vt 0.91393155 0.70174336
vt 0.70422918 0.25810927
vt 0.97029650 0.59220171
vt 0.89702064 0.70174336
vt 0.79033059 0.25810927
vt 0.85463923 0.59220171
vt 0.91393155 0.70174348
vt 0.70383483 0.25810963
vt 0.97029650 0.59220171
vt 0.89702094 0.70174348
vt 0.79033059 0.25810927
vt 0.85463923 0.59220153
vt 0.91393107 0.70174348
vt 0.70383483 0.25810963
vt 0.97029650 0.59231794
vt 0.89702094 0.70174336
vt 0.78993636 0.25810963
vt 0.84628791 0.40577471
vt 0.89702094 0.64241952
vt 0.78777432 0.30528593
vt 0.85463923 0.53095222
vt 0.89702064 0.64241928
vt 0.78777432 0.30528593
vt 0.85463923 0.53095222
vt 0.91393155 0.64241934
vt 0.70167279 0.30528593
vt 0.97029650 0.53095222
vt 0.91393155 0.64241934
vt 0.78771269 0.29243767
vt 0.96298450 0.34420621
vt 0.91393155 0.64241928
vt 0.78777432 0.29228818
vt 0.97029650 0.53095186
vt 0.89702094 0.64241952
vt 0.70164204 0.29228818
vt 0.85463923 0.53095222
vt 0.91393107 0.64241928
vt 0.78774345 0.29228818
vt 0.97029650 0.53095222
vt 0.89702094 0.64241928
vt 0.70167303 0.29228818
vt 0.85463923 0.53095222
vt 0.91393155 0.64241952
vt 0.78777432 0.29228818
vt 0.97029650 0.53095222
vt 0.89702094 0.64241928
vt 0.70167279 0.29228818
vt 0.85463923 0.53106868
vt 0.91393155 0.64241928
vt 0.78777409 0.29228818
vt 0.97029650 0.53106868
vt 0.91393125 0.64241928
vt 0.78811502 0.29243898
vt 0.96298450 0.34420604
vt 0.89702094 0.64241928
vt 0.78811502 0.30543673
vt 0.80035144 0.10997367
vt 0.89702094 0.70174336
vt 0.79033071 0.25810927
vt 0.80035144 0.16639364
vt 0.91393155 0.70174336
vt 0.70318872 0.25810927
vt 0.69252646 0.16639364
vt 0.91393155 0.64241928
vt 0.70097291 0.30543673
vt 0.69252616 0.10997367
vt 0.89702094 0.64241928
vt 0.78777409 0.30528593
vt 0.79947263 0.18163949
vt 0.89702094 0.70174336
vt 0.79033071 0.25810927
vt 0.79947263 0.23805952
vt 0.91393155 0.70174336
vt 0.70422941 0.25810927
vt 0.69293493 0.23805952
vt 0.91393155 0.64241928
vt 0.70167279 0.30528593
vt 0.69293463 0.18163949
vt 0.89702094 0.64241952
vt 0.78777409 0.30528593
vt 0.79947263 0.18163949
vt 0.89702094 0.70174348
vt 0.79033059 0.25810963
vt 0.79947263 0.23805940
vt 0.91393155 0.70174336
vt 0.70422918 0.25810963
vt 0.69293505 0.23805940
vt 0.91393155 0.64241928
vt 0.70167279 0.30528593
vt 0.69293505 0.18163949
vt 0.89702064 0.64241928
vt 0.78774345 0.30528593
vt 0.79947263 0.18163949
vt 0.89702064 0.70174336
vt 0.78981954 0.25821751
vt 0.79947263 0.23805940
vt 0.91393155 0.70174366
vt 0.70371801 0.25821751
vt 0.69293493 0.23805940
vt 0.91393155 0.64241952
vt 0.70164204 0.30528593
vt 0.69293493 0.18163949
vt 0.89702094 0.64241928
vt 0.78777432 0.30528593
vt 0.79947263 0.18163949
vt 0.89702094 0.70174336
vt 0.79033071 0.25810963
vt 0.79947263 0.23805940
vt 0.91393155 0.70174336
vt 0.70422918 0.25810963
vt 0.69293463 0.23805940
vt 0.91393155 0.64241928
vt 0.70167303 0.30528593
vt 0.69293463 0.18163949
vt 0.89702094 0.64241934
vt 0.78771269 0.30543542
vt 0.80996954 0.31803346
vt 0.89702094 0.70174336
vt 0.78942519 0.25821751
vt 0.80996954 0.37619257
vt 0.91393107 0.70174336
vt 0.70371801 0.25821751
vt 0.70065081 0.37619233
vt 0.91393107 0.64241934
vt 0.70200574 0.30543542
vt 0.70065081 0.31803346
vt 0.89702094 0.64241928
vt 0.70206738 0.29228818
vt 0.69495982 0.08977985
vt 0.89702094 0.70174336
vt 0.70422941 0.27110738
vt 0.69495982 0.03335994
vt 0.91393155 0.70174348
vt 0.78993636 0.27110738
vt 0.80100948 0.03335994
vt 0.91393155 0.64241952
vt 0.78777432 0.29228818
vt 0.80100948 0.08977985
vt 0.89702094 0.64241952
vt 0.70167279 0.29228818
vt 0.79947263 0.18163949
vt 0.89702094 0.70174336
vt 0.70422918 0.27110702
vt 0.79947263 0.23805940
vt 0.91393107 0.70174336
vt 0.79033059 0.27110702
vt 0.69293493 0.23805940
vt 0.91393107 0.64241952
vt 0.78777432 0.29228818
vt 0.69293493 0.18163949
vt 0.89702094 0.64241934
vt 0.70167279 0.29228842
vt 0.79947251 0.18163949
vt 0.89702094 0.70174348
vt 0.70383483 0.27110749
vt 0.79947251 0.23805940
vt 0.91393125 0.70174336
vt 0.78993636 0.27110749
vt 0.69293493 0.23805940
vt 0.91393125 0.64241928
vt 0.78777432 0.29228842
vt 0.69293493 0.18163949
vt 0.89702064 0.64241934
vt 0.70167303 0.29228818
vt 0.79947251 0.18163949
vt 0.89702064 0.70174336
vt 0.70422918 0.27110702
vt 0.79947251 0.23805940
vt 0.91393155 0.70174348
vt 0.79033059 0.27110702
vt 0.69293493 0.23805940
vt 0.91393155 0.64241952
vt 0.78777432 0.29228818
vt 0.69293493 0.18163949
vt 0.89702064 0.64241934
vt 0.70167303 0.29228818
vt 0.81141555 0.38630360
vt 0.89702064 0.70174348
vt 0.70383483 0.27110738
vt 0.81141555 0.44446248
vt 0.91393155 0.70174336
vt 0.78993636 0.27110738
vt 0.70159417 0.44446248
vt 0.91393155 0.64241928
vt 0.78777432 0.29228818
vt 0.70159417 0.38630360
vt 0.89702094 0.64241958
vt 0.70104337 0.29237461
vt 0.80035114 0.10997379
vt 0.89702094 0.70174366
vt 0.70279437 0.27110738
vt 0.80035144 0.16639370
vt 0.91393155 0.70174336
vt 0.78993636 0.27110738
vt 0.69252616 0.16639370
vt 0.91393155 0.64241928
vt 0.78818524 0.29237461
vt 0.69252616 0.10997379
vt 0.81054461 0.14226502
vt 0.81054461 0.14226502
vt 0.81054461 0.25504565
vt 0.81054461 0.25504565
vt 0.81054461 0.25504565
vt 0.80772495 0.14226502
vt 0.81054461 0.25786519
vt 0.80772495 0.25504565
vt 0.97971547 0.14226502
vt 0.97971547 0.14226502
vt 0.97971547 0.25504565
vt 0.97971547 0.25504565
vt 0.97971547 0.25504565
vt 0.98253500 0.14226502
vt 0.97971547 0.25786507
vt 0.98253500 0.25504565
f 2/2/2 5/5/5 8/8/8
f 2/2/2 8/8/8 6/6/6
f 14/14/14 16/16/16 13/13/13
f 14/14/14 13/13/13 10/10/10
f 9/9/9 11/11/11 3/3/3
f 9/9/9 3/3/3 1/1/1
f 15/15/15 7/7/7 4/4/4
f 15/15/15 4/4/4 12/12/12
f 22/22/22 21/21/21 48/48/48
f 22/22/22 48/48/48 45/45/45
f 47/47/47 46/46/46 23/23/23
f 47/47/47 23/23/23 24/24/24
f 45/45/45 48/48/48 17/17/17
f 45/45/45 17/17/17 18/18/18
f 39/39/39 43/43/43 35/35/35
f 39/39/39 35/35/35 29/29/29
f 27/27/27 33/33/33 44/44/44
f 27/27/27 44/44/44 40/40/40
f 20/20/20 19/19/19 46/46/46
f 20/20/20 46/46/46 47/47/47
f 64/64/64 53/53/53 59/59/59
f 64/64/64 59/59/59 68/68/68
f 50/50/50 63/63/63 67/67/67
f 50/50/50 67/67/67 56/56/56
f 25/25/25 37/37/37 62/62/62
f 25/25/25 62/62/62 49/49/49
f 30/30/30 36/36/36 60/60/60
f 30/30/30 60/60/60 54/54/54
f 32/32/32 26/26/26 51/51/51
f 32/32/32 51/51/51 57/57/57
f 34/34/34 42/42/42 66/66/66
f 34/34/34 66/66/66 58/58/58
f 41/41/41 31/31/31 55/55/55
f 41/41/41 55/55/55 65/65/65
f 38/38/38 28/28/28 52/52/52
f 38/38/38 52/52/52 61/61/61
f 154/154/154 156/156/156 158/158/158
f 154/154/154 158/158/158 160/160/160
f 142/142/142 155/155/155 153/153/153
f 142/142/142 153/153/153 265/265/265
f 22/22/22 159/159/159 157/157/157
f 22/22/22 157/157/157 21/21/21
f 162/162/162 164/164/164 166/166/166
f 162/162/162 166/166/166 168/168/168
f 118/118/118 163/163/163 161/161/161
f 118/118/118 161/161/161 313/313/313
f 20/20/20 167/167/167 165/165/165
f 20/20/20 165/165/165 19/19/19
f 170/170/170 172/172/172 174/174/174
f 170/170/170 174/174/174 176/176/176
f 17/17/17 171/171/171 169/169/169
f 17/17/17 169/169/169 18/18/18
f 338/338/338 175/175/175 173/173/173
f 338/338/338 173/173/173 96/96/96
f 178/178/178 180/180/180 182/182/182
f 178/178/178 182/182/182 184/184/184
f 98/98/98 179/179/179 177/177/177
f 98/98/98 177/177/177 336/336/336
f 334/334/334 183/183/183 181/181/181
f 334/334/334 181/181/181 100/100/100
f 186/186/186 188/188/188 190/190/190
f 186/186/186 190/190/190 192/192/192
f 102/102/102 187/187/187 185/185/185
f 102/102/102 185/185/185 332/332/332
f 330/330/330 191/191/191 189/189/189
f 330/330/330 189/189/189 104/104/104
f 194/194/194 196/196/196 198/198/198
f 194/194/194 198/198/198 200/200/200
f 106/106/106 195/195/195 193/193/193
f 106/106/106 193/193/193 328/328/328
f 326/326/326 199/199/199 197/197/197
f 326/326/326 197/197/197 108/108/108
f 202/202/202 204/204/204 206/206/206
f 202/202/202 206/206/206 208/208/208
f 110/110/110 203/203/203 201/201/201
f 110/110/110 201/201/201 324/324/324
f 322/322/322 207/207/207 205/205/205
f 322/322/322 205/205/205 112/112/112
f 210/210/210 212/212/212 214/214/214
f 210/210/210 214/214/214 216/216/216
f 114/114/114 211/211/211 209/209/209
f 114/114/114 209/209/209 320/320/320
f 318/318/318 215/215/215 213/213/213
f 318/318/318 213/213/213 116/116/116
f 218/218/218 220/220/220 222/222/222
f 218/218/218 222/222/222 224/224/224
f 23/23/23 219/219/219 217/217/217
f 23/23/23 217/217/217 24/24/24
f 287/287/287 223/223/223 221/221/221
f 287/287/287 221/221/221 120/120/120
f 226/226/226 228/228/228 230/230/230
f 226/226/226 230/230/230 232/232/232
f 122/122/122 227/227/227 225/225/225
f 122/122/122 225/225/225 285/285/285
f 283/283/283 231/231/231 229/229/229
f 283/283/283 229/229/229 124/124/124
f 234/234/234 236/236/236 238/238/238
f 234/234/234 238/238/238 240/240/240
f 126/126/126 235/235/235 233/233/233
f 126/126/126 233/233/233 281/281/281
f 279/279/279 239/239/239 237/237/237
f 279/279/279 237/237/237 128/128/128
f 242/242/242 244/244/244 246/246/246
f 242/242/242 246/246/246 248/248/248
f 130/130/130 243/243/243 241/241/241
f 130/130/130 241/241/241 277/277/277
f 275/275/275 247/247/247 245/245/245
f 275/275/275 245/245/245 132/132/132
f 250/250/250 252/252/252 254/254/254
f 250/250/250 254/254/254 256/256/256
f 134/134/134 251/251/251 249/249/249
f 134/134/134 249/249/249 273/273/273
f 271/271/271 255/255/255 253/253/253
f 271/271/271 253/253/253 136/136/136
f 258/258/258 260/260/260 262/262/262
f 258/258/258 262/262/262 264/264/264
f 138/138/138 259/259/259 257/257/257
f 138/138/138 257/257/257 269/269/269
f 267/267/267 263/263/263 261/261/261
f 267/267/267 261/261/261 140/140/140
f 74/74/74 71/71/71 266/266/266
f 74/74/74 266/266/266 268/268/268
f 80/80/80 77/77/77 270/270/270
f 80/80/80 270/270/270 272/272/272
f 83/83/83 387/387/387 274/274/274
f 83/83/83 274/274/274 276/276/276
f 393/393/393 390/390/390 278/278/278
f 393/393/393 278/278/278 280/280/280
f 89/89/89 86/86/86 282/282/282
f 89/89/89 282/282/282 284/284/284
f 95/95/95 92/92/92 286/286/286
f 95/95/95 286/286/286 288/288/288
f 342/342/342 291/291/291 97/97/97
f 342/342/342 97/97/97 99/99/99
f 348/348/348 345/345/345 101/101/101
f 348/348/348 101/101/101 103/103/103
f 294/294/294 297/297/297 105/105/105
f 294/294/294 105/105/105 107/107/107
f 354/354/354 351/351/351 109/109/109
f 354/354/354 109/109/109 111/111/111
f 357/357/357 300/300/300 113/113/113
f 357/357/357 113/113/113 115/115/115
f 360/360/360 303/303/303 117/117/117
f 360/360/360 117/117/117 119/119/119
f 366/366/366 363/363/363 121/121/121
f 366/366/366 121/121/121 123/123/123
f 372/372/372 369/369/369 125/125/125
f 372/372/372 125/125/125 127/127/127
f 306/306/306 375/375/375 129/129/129
f 306/306/306 129/129/129 131/131/131
f 378/378/378 309/309/309 133/133/133
f 378/378/378 133/133/133 135/135/135
f 312/312/312 381/381/381 137/137/137
f 312/312/312 137/137/137 139/139/139
f 384/384/384 317/317/317 141/141/141
f 384/384/384 141/141/141 143/143/143
f 396/396/396 146/146/146 314/314/314
f 396/396/396 314/314/314 319/319/319
f 399/399/399 149/149/149 321/321/321
f 399/399/399 321/321/321 323/323/323
f 405/405/405 402/402/402 325/325/325
f 405/405/405 325/325/325 327/327/327
f 411/411/411 408/408/408 329/329/329
f 411/411/411 329/329/329 331/331/331
f 417/417/417 414/414/414 333/333/333
f 417/417/417 333/333/333 335/335/335
f 420/420/420 152/152/152 337/337/337
f 420/420/420 337/337/337 339/339/339
f 291/291/291 420/420/420 339/339/339
f 291/291/291 339/339/339 97/97/97
f 152/152/152 342/342/342 99/99/99
f 152/152/152 99/99/99 337/337/337
f 345/345/345 417/417/417 335/335/335
f 345/345/345 335/335/335 101/101/101
f 414/414/414 348/348/348 103/103/103
f 414/414/414 103/103/103 333/333/333
f 297/297/297 411/411/411 331/331/331
f 297/297/297 331/331/331 105/105/105
f 408/408/408 294/294/294 107/107/107
f 408/408/408 107/107/107 329/329/329
f 351/351/351 405/405/405 327/327/327
f 351/351/351 327/327/327 109/109/109
f 402/402/402 354/354/354 111/111/111
f 402/402/402 111/111/111 325/325/325
f 300/300/300 399/399/399 323/323/323
f 300/300/300 323/323/323 113/113/113
f 149/149/149 357/357/357 115/115/115
f 149/149/149 115/115/115 321/321/321
f 303/303/303 396/396/396 319/319/319
f 303/303/303 319/319/319 117/117/117
f 146/146/146 360/360/360 119/119/119
f 146/146/146 119/119/119 314/314/314
f 363/363/363 95/95/95 288/288/288
f 363/363/363 288/288/288 121/121/121
f 92/92/92 366/366/366 123/123/123
f 92/92/92 123/123/123 286/286/286
f 369/369/369 89/89/89 284/284/284
f 369/369/369 284/284/284 125/125/125
f 86/86/86 372/372/372 127/127/127
f 86/86/86 127/127/127 282/282/282
f 375/375/375 393/393/393 280/280/280
f 375/375/375 280/280/280 129/129/129
f 390/390/390 306/306/306 131/131/131
f 390/390/390 131/131/131 278/278/278
f 309/309/309 83/83/83 276/276/276
f 309/309/309 276/276/276 133/133/133
f 387/387/387 378/378/378 135/135/135
f 387/387/387 135/135/135 274/274/274
f 381/381/381 80/80/80 272/272/272
f 381/381/381 272/272/272 137/137/137
f 77/77/77 312/312/312 139/139/139
f 77/77/77 139/139/139 270/270/270
f 317/317/317 74/74/74 268/268/268
f 317/317/317 268/268/268 141/141/141
f 71/71/71 384/384/384 143/143/143
f 71/71/71 143/143/143 266/266/266
f 423/423/423 426/426/426 429/429/429
f 423/423/423 429/429/429 432/432/432
f 289/289/289 424/424/424 421/421/421
f 289/289/289 421/421/421 418/418/418
f 341/341/341 428/428/428 425/425/425
f 341/341/341 425/425/425 290/290/290
f 150/150/150 430/430/430 427/427/427
f 150/150/150 427/427/427 340/340/340
f 419/419/419 422/422/422 431/431/431
f 419/419/419 431/431/431 151/151/151
f 435/435/435 438/438/438 441/441/441
f 435/435/435 441/441/441 444/444/444
f 343/343/343 436/436/436 433/433/433
f 343/343/343 433/433/433 415/415/415
f 347/347/347 440/440/440 437/437/437
f 347/347/347 437/437/437 344/344/344
f 412/412/412 442/442/442 439/439/439
f 412/412/412 439/439/439 346/346/346
f 416/416/416 434/434/434 443/443/443
f 416/416/416 443/443/443 413/413/413
f 447/447/447 450/450/450 453/453/453
f 447/447/447 453/453/453 456/456/456
f 295/295/295 448/448/448 445/445/445
f 295/295/295 445/445/445 409/409/409
f 293/293/293 452/452/452 449/449/449
f 293/293/293 449/449/449 296/296/296
f 406/406/406 454/454/454 451/451/451
f 406/406/406 451/451/451 292/292/292
f 410/410/410 446/446/446 455/455/455
f 410/410/410 455/455/455 407/407/407
f 459/459/459 462/462/462 465/465/465
f 459/459/459 465/465/465 468/468/468
f 349/349/349 460/460/460 457/457/457
f 349/349/349 457/457/457 403/403/403
f 353/353/353 464/464/464 461/461/461
f 353/353/353 461/461/461 350/350/350
f 400/400/400 466/466/466 463/463/463
f 400/400/400 463/463/463 352/352/352
f 404/404/404 458/458/458 467/467/467
f 404/404/404 467/467/467 401/401/401
f 471/471/471 474/474/474 477/477/477
f 471/471/471 477/477/477 480/480/480
f 298/298/298 472/472/472 469/469/469
f 298/298/298 469/469/469 397/397/397
f 356/356/356 476/476/476 473/473/473
f 356/356/356 473/473/473 299/299/299
f 147/147/147 478/478/478 475/475/475
f 147/147/147 475/475/475 355/355/355
f 398/398/398 470/470/470 479/479/479
f 398/398/398 479/479/479 148/148/148
f 483/483/483 486/486/486 489/489/489
f 483/483/483 489/489/489 492/492/492
f 301/301/301 484/484/484 481/481/481
f 301/301/301 481/481/481 394/394/394
f 359/359/359 488/488/488 485/485/485
f 359/359/359 485/485/485 302/302/302
f 144/144/144 490/490/490 487/487/487
f 144/144/144 487/487/487 358/358/358
f 395/395/395 482/482/482 491/491/491
f 395/395/395 491/491/491 145/145/145
f 495/495/495 498/498/498 501/501/501
f 495/495/495 501/501/501 504/504/504
f 361/361/361 496/496/496 493/493/493
f 361/361/361 493/493/493 93/93/93
f 365/365/365 500/500/500 497/497/497
f 365/365/365 497/497/497 362/362/362
f 90/90/90 502/502/502 499/499/499
f 90/90/90 499/499/499 364/364/364
f 94/94/94 494/494/494 503/503/503
f 94/94/94 503/503/503 91/91/91
f 507/507/507 510/510/510 513/513/513
f 507/507/507 513/513/513 516/516/516
f 367/367/367 508/508/508 505/505/505
f 367/367/367 505/505/505 87/87/87
f 371/371/371 512/512/512 509/509/509
f 371/371/371 509/509/509 368/368/368
f 84/84/84 514/514/514 511/511/511
f 84/84/84 511/511/511 370/370/370
f 88/88/88 506/506/506 515/515/515
f 88/88/88 515/515/515 85/85/85
f 519/519/519 522/522/522 525/525/525
f 519/519/519 525/525/525 528/528/528
f 373/373/373 520/520/520 517/517/517
f 373/373/373 517/517/517 391/391/391
f 305/305/305 524/524/524 521/521/521
f 305/305/305 521/521/521 374/374/374
f 388/388/388 526/526/526 523/523/523
f 388/388/388 523/523/523 304/304/304
f 392/392/392 518/518/518 527/527/527
f 392/392/392 527/527/527 389/389/389
f 531/531/531 534/534/534 537/537/537
f 531/531/531 537/537/537 540/540/540
f 307/307/307 532/532/532 529/529/529
f 307/307/307 529/529/529 81/81/81
f 377/377/377 536/536/536 533/533/533
f 377/377/377 533/533/533 308/308/308
f 385/385/385 538/538/538 535/535/535
f 385/385/385 535/535/535 376/376/376
f 82/82/82 530/530/530 539/539/539
f 82/82/82 539/539/539 386/386/386
f 543/543/543 546/546/546 549/549/549
f 543/543/543 549/549/549 552/552/552
f 379/379/379 544/544/544 541/541/541
f 379/379/379 541/541/541 78/78/78
f 311/311/311 548/548/548 545/545/545
f 311/311/311 545/545/545 380/380/380
f 75/75/75 550/550/550 547/547/547
f 75/75/75 547/547/547 310/310/310
f 79/79/79 542/542/542 551/551/551
f 79/79/79 551/551/551 76/76/76
f 555/555/555 558/558/558 561/561/561
f 555/555/555 561/561/561 564/564/564
f 315/315/315 556/556/556 553/553/553
f 315/315/315 553/553/553 72/72/72
f 383/383/383 560/560/560 557/557/557
f 383/383/383 557/557/557 316/316/316
f 69/69/69 562/562/562 559/559/559
f 69/69/69 559/559/559 382/382/382
f 73/73/73 554/554/554 563/563/563
f 73/73/73 563/563/563 70/70/70
f 566/566/566 569/569/569 572/572/572
f 566/566/566 572/572/572 570/570/570
f 578/578/578 580/580/580 577/577/577
f 578/578/578 577/577/577 574/574/574
f 573/573/573 575/575/575 567/567/567
f 573/573/573 567/567/567 565/565/565
f 579/579/579 571/571/571 568/568/568
f 579/579/579 568/568/568 576/576/576

